<?xml version="1.0" encoding="utf-8"?>
<!-- Generator: Adobe Illustrator 16.0.0, SVG Export Plug-In . SVG Version: 6.00 Build 0)  -->
<!DOCTYPE svg PUBLIC "-//W3C//DTD SVG 1.1//EN" "http://www.w3.org/Graphics/SVG/1.1/DTD/svg11.dtd">
<svg version="1.1" id="Layer_1" xmlns="http://www.w3.org/2000/svg" xmlns:xlink="http://www.w3.org/1999/xlink" x="0px" y="0px"
	 width="317.156px" height="90.609px" viewBox="0 0 317.156 90.609" enable-background="new 0 0 317.156 90.609"
	 xml:space="preserve">
<g>
	<path d="M176.975,71.925c-0.355-4.615-4.108-6.999-8.826-6.999c-6.543,0-10.042,5.782-10.042,11.716
		c0,7.051,3.297,12.224,10.042,12.224c4.869,0,8.42-3.348,9.079-8.115h1.928c-0.863,6.239-5.377,9.789-11.007,9.789
		c-8.47,0-11.97-6.645-11.97-13.897s4.26-13.39,11.97-13.39c5.63,0,10.195,2.738,10.753,8.673H176.975z"/>
	<path d="M185.6,69.643h0.152c1.014-3.398,5.275-6.137,9.992-5.935v1.928c-2.029-0.254-4.869,0.254-7.203,2.536
		c-1.927,1.978-2.738,3.601-2.941,7.507v14.252h-1.928V63.86h1.928V69.643z"/>
	<path d="M198.534,77.149c-0.102,6.137,3.145,11.716,9.586,11.716c4.92,0,8.42-2.941,9.333-7.76h1.928
		c-1.016,6.086-5.072,9.434-11.261,9.434c-7.608,0-11.614-5.984-11.513-13.188c-0.102-7.151,3.651-14.1,11.513-14.1
		c8.166,0,11.817,6.441,11.463,13.897H198.534z M217.656,75.476c-0.102-5.478-3.551-10.55-9.536-10.55
		c-5.782,0-9.181,5.376-9.586,10.55H217.656z"/>
	<path d="M243.322,85.112c0,1.521,0,3.145,1.725,3.145c0.355,0,0.812-0.051,1.42-0.152v1.623c-0.558,0.102-1.064,0.203-1.572,0.203
		c-3.043,0-3.5-1.674-3.5-3.804v-1.37h-0.101c-1.218,3.095-4.718,5.782-9.688,5.782c-4.92,0-8.724-1.876-8.724-7.354
		c0-6.086,5.274-7.354,9.586-7.709c8.622-0.608,8.977-1.167,8.977-5.427c0-1.167-1.318-5.123-7.252-5.123
		c-4.666,0-7.761,2.435-8.014,6.948h-1.928c0.254-5.731,3.804-8.622,9.941-8.622c4.564,0,9.129,1.42,9.129,6.797V85.112z
		 M241.395,75.12c-1.521,1.725-5.68,1.521-9.434,2.029c-4.564,0.507-7.151,2.13-7.151,6.035c0,3.145,2.282,5.681,6.847,5.681
		c8.775,0,9.738-7.506,9.738-8.876V75.12z"/>
	<path d="M259.048,65.534h-5.681v18.209c0,4.209,1.979,4.615,5.63,4.514v1.674c-3.956,0.254-7.76-0.305-7.558-6.188V65.534h-4.818
		V63.86h4.818v-8.115h1.928v8.115h5.681V65.534z"/>
	<path d="M263.056,58.94v-5.224h1.927v5.224H263.056z M263.056,89.931V63.86h1.927v26.07H263.056z"/>
	<path d="M281.062,89.931h-2.384l-10.499-26.07h2.231l9.435,23.839h0.101l8.826-23.839h2.13L281.062,89.931z"/>
	<path d="M294.402,77.149c-0.102,6.137,3.145,11.716,9.587,11.716c4.919,0,8.419-2.941,9.332-7.76h1.928
		c-1.015,6.086-5.072,9.434-11.26,9.434c-7.608,0-11.615-5.984-11.514-13.188c-0.102-7.151,3.651-14.1,11.514-14.1
		c8.165,0,11.817,6.441,11.462,13.897H294.402z M313.524,75.476c-0.102-5.478-3.55-10.55-9.535-10.55
		c-5.782,0-9.181,5.376-9.587,10.55H313.524z"/>
</g>
<g>
	<path d="M0.595,14.415c0-0.871-0.035-1.929-0.101-3.171C0.426,10.003,0.376,8.745,0.343,7.47C0.309,6.195,0.258,5.003,0.192,3.896
		C0.125,2.789,0.091,1.933,0.091,1.329h6.04c0.066,1.746,0.117,3.423,0.151,5.033c0.033,1.61,0.116,2.651,0.251,3.12h0.302
		c1.208-2.55,3.221-4.746,6.04-6.593c2.818-1.845,6.105-2.769,9.864-2.769c3.086,0,5.904,0.79,8.456,2.365
		c2.55,1.578,4.395,4.145,5.536,7.701c1.476-3.489,3.674-6.04,6.593-7.65c2.919-1.61,5.989-2.416,9.21-2.416
		c3.624,0,6.576,0.571,8.858,1.711c2.28,1.143,4.077,2.635,5.385,4.479c1.309,1.847,2.214,3.977,2.718,6.393
		c0.503,2.415,0.755,4.898,0.755,7.448v27.682h-6.04v-27.38c0-1.878-0.168-3.707-0.503-5.485c-0.336-1.777-0.923-3.372-1.762-4.781
		c-0.84-1.409-2.013-2.532-3.523-3.372c-1.51-0.839-3.473-1.259-5.889-1.259c-2.818,0-5.134,0.521-6.945,1.561
		c-1.812,1.041-3.239,2.365-4.278,3.976c-1.041,1.611-1.779,3.356-2.214,5.234c-0.437,1.88-0.654,3.658-0.654,5.335v26.172h-6.04
		V19.851c0-4.294-0.79-7.751-2.366-10.368c-1.577-2.617-4.01-3.926-7.298-3.926c-2.214,0-4.312,0.387-6.291,1.158
		c-1.98,0.771-3.691,1.946-5.134,3.522c-1.444,1.578-2.584,3.558-3.422,5.939c-0.84,2.383-1.258,5.184-1.258,8.405v23.252h-6.04
		V14.415z"/>
	<g>
		<path d="M94.509,35.956c1.274,2.483,3.154,4.379,5.637,5.688c2.482,1.309,5.099,1.963,7.852,1.963
			c1.274,0,2.549-0.201,3.825-0.604c1.274-0.402,2.416-0.972,3.422-1.711c1.007-0.737,1.828-1.626,2.466-2.667
			c0.637-1.04,0.957-2.23,0.957-3.574c0-2.146-0.689-3.757-2.064-4.831c-1.376-1.073-3.07-1.913-5.083-2.517
			c-2.013-0.604-4.228-1.123-6.644-1.561c-2.416-0.436-4.63-1.107-6.644-2.013c-2.013-0.906-3.709-2.164-5.083-3.775
			c-1.376-1.61-2.063-3.891-2.063-6.845c0-2.28,0.469-4.261,1.409-5.938c0.939-1.677,2.164-3.07,3.674-4.178
			c1.51-1.107,3.204-1.928,5.083-2.466c1.878-0.536,3.791-0.806,5.738-0.806c3.825,0,7.129,0.705,9.915,2.114
			c2.784,1.409,4.948,3.623,6.493,6.644l-5.436,3.221c-1.142-2.146-2.567-3.774-4.278-4.882c-1.711-1.107-3.943-1.661-6.694-1.661
			c-1.074,0-2.199,0.169-3.372,0.504c-1.175,0.336-2.232,0.805-3.171,1.409c-0.94,0.604-1.729,1.376-2.365,2.314
			c-0.639,0.941-0.957,2.014-0.957,3.222c0,2.081,0.688,3.624,2.063,4.63c1.375,1.007,3.07,1.797,5.083,2.366
			c2.013,0.57,4.228,1.057,6.644,1.459s4.63,1.057,6.644,1.963s3.707,2.215,5.083,3.926c1.375,1.711,2.063,4.145,2.063,7.298
			c0,2.416-0.453,4.514-1.359,6.291c-0.906,1.779-2.148,3.271-3.725,4.479c-1.578,1.208-3.372,2.114-5.385,2.718
			c-2.013,0.604-4.127,0.906-6.342,0.906c-4.026,0-7.7-0.772-11.022-2.315s-5.889-3.926-7.701-7.146L94.509,35.956z"/>
		<path d="M129.941,1.329h6.04v8.153h0.202c0.939-1.61,2.114-3.002,3.523-4.177c1.409-1.174,2.935-2.147,4.58-2.92
			c1.644-0.771,3.372-1.341,5.184-1.711c1.812-0.368,3.589-0.554,5.335-0.554c3.556,0,6.827,0.604,9.814,1.812
			c2.985,1.208,5.569,2.904,7.751,5.084c2.18,2.182,3.875,4.766,5.083,7.751c1.208,2.986,1.811,6.258,1.811,9.814
			c0,3.558-0.604,6.829-1.811,9.813c-1.208,2.987-2.904,5.571-5.083,7.751c-2.182,2.182-4.766,3.876-7.751,5.084
			c-2.987,1.207-6.258,1.812-9.814,1.812c-1.746,0-3.523-0.186-5.335-0.554c-1.812-0.369-3.541-0.939-5.184-1.711
			c-1.646-0.771-3.171-1.744-4.58-2.919c-1.409-1.174-2.584-2.567-3.523-4.178h-0.202v31.104h-6.04V1.329z M135.376,24.582
			c0,2.616,0.503,5.083,1.51,7.398c1.006,2.314,2.381,4.328,4.127,6.039c1.744,1.711,3.791,3.07,6.14,4.077
			c2.348,1.006,4.898,1.51,7.65,1.51c2.818,0,5.368-0.504,7.65-1.51c2.281-1.007,4.228-2.366,5.838-4.077
			c1.61-1.711,2.834-3.725,3.674-6.039c0.838-2.315,1.258-4.782,1.258-7.398c0-2.617-0.42-5.084-1.258-7.399
			c-0.84-2.314-2.063-4.328-3.674-6.039c-1.611-1.711-3.558-3.07-5.838-4.077c-2.282-1.006-4.832-1.51-7.65-1.51
			c-2.752,0-5.302,0.504-7.65,1.51c-2.35,1.007-4.396,2.366-6.14,4.077c-1.746,1.711-3.121,3.725-4.127,6.039
			C135.88,19.498,135.376,21.965,135.376,24.582z"/>
		<path d="M222.145,28.306c0,2.282,0.016,4.329,0.051,6.141c0.033,1.812,0.083,3.49,0.15,5.033c0.066,1.544,0.151,2.986,0.252,4.328
			c0.101,1.343,0.252,2.685,0.453,4.026h-5.637c-0.402-2.28-0.604-4.797-0.604-7.55h-0.201c-1.745,3.021-3.91,5.234-6.493,6.644
			c-2.584,1.409-5.855,2.114-9.813,2.114c-2.013,0-3.993-0.252-5.938-0.755c-1.947-0.504-3.691-1.309-5.234-2.416
			c-1.545-1.107-2.803-2.532-3.775-4.278c-0.974-1.744-1.459-3.857-1.459-6.341c0-3.557,0.905-6.375,2.717-8.456
			c1.812-2.079,4.043-3.64,6.694-4.681c2.65-1.039,5.469-1.711,8.456-2.013c2.984-0.303,5.619-0.453,7.901-0.453h7.046v-2.818
			c0-4.026-1.242-6.911-3.725-8.657c-2.482-1.744-5.604-2.617-9.361-2.617c-5.369,0-10.1,1.746-14.193,5.234l-3.522-4.127
			c2.214-2.146,4.966-3.774,8.254-4.882c3.287-1.107,6.442-1.661,9.462-1.661c5.637,0,10.133,1.326,13.488,3.977
			c3.355,2.651,5.033,6.93,5.033,12.834V28.306z M210.065,24.48c-2.551,0-5.017,0.169-7.398,0.504
			c-2.383,0.336-4.53,0.906-6.442,1.711c-1.912,0.806-3.439,1.88-4.58,3.222c-1.142,1.343-1.711,3.02-1.711,5.032
			c0,1.409,0.318,2.668,0.956,3.775c0.638,1.106,1.46,2.013,2.466,2.718c1.008,0.704,2.131,1.242,3.373,1.61
			c1.24,0.369,2.499,0.554,3.774,0.554c3.222,0,5.871-0.469,7.952-1.409c2.079-0.939,3.74-2.164,4.982-3.674
			c1.241-1.511,2.097-3.222,2.566-5.134c0.469-1.913,0.705-3.841,0.705-5.788V24.48H210.065z"/>
		<path d="M269.152,40.989c-2.281,2.752-4.865,4.781-7.75,6.09c-2.887,1.309-6.007,1.963-9.361,1.963
			c-3.559,0-6.846-0.604-9.865-1.812c-3.02-1.208-5.604-2.902-7.751-5.084c-2.148-2.18-3.825-4.764-5.032-7.751
			c-1.209-2.984-1.812-6.256-1.812-9.813c0-3.557,0.604-6.828,1.812-9.814c1.207-2.985,2.884-5.569,5.032-7.751
			c2.147-2.18,4.731-3.876,7.751-5.084c3.02-1.207,6.307-1.812,9.865-1.812c3.422,0,6.593,0.705,9.512,2.114
			c2.92,1.409,5.52,3.389,7.801,5.938l-4.831,3.624c-1.746-1.945-3.659-3.473-5.737-4.58c-2.081-1.107-4.328-1.661-6.744-1.661
			c-2.818,0-5.37,0.504-7.65,1.51c-2.282,1.007-4.229,2.366-5.838,4.077c-1.611,1.711-2.836,3.725-3.675,6.039
			c-0.84,2.315-1.259,4.782-1.259,7.399c0,2.616,0.419,5.083,1.259,7.398c0.839,2.314,2.063,4.328,3.675,6.039
			c1.609,1.711,3.556,3.07,5.838,4.077c2.28,1.006,4.832,1.51,7.65,1.51c2.549,0,4.881-0.587,6.995-1.762
			c2.114-1.173,3.942-2.733,5.486-4.681L269.152,40.989z"/>
		<path d="M315.656,39.076c-2.35,3.558-5.252,6.107-8.707,7.65c-3.457,1.543-7.266,2.315-11.425,2.315
			c-3.558,0-6.778-0.604-9.663-1.812c-2.887-1.208-5.37-2.902-7.449-5.084c-2.081-2.18-3.674-4.764-4.781-7.751
			c-1.107-2.984-1.661-6.291-1.661-9.915c0-3.488,0.569-6.709,1.712-9.663c1.14-2.952,2.75-5.519,4.831-7.7
			c2.079-2.18,4.53-3.892,7.349-5.134c2.818-1.241,5.938-1.862,9.361-1.862c3.556,0,6.693,0.621,9.411,1.862
			c2.718,1.242,4.999,2.886,6.845,4.933c1.846,2.048,3.237,4.379,4.178,6.995c0.939,2.617,1.409,5.27,1.409,7.952v4.229H278.01
			c0,1.275,0.252,2.903,0.754,4.882c0.504,1.98,1.426,3.91,2.77,5.788c1.341,1.879,3.135,3.49,5.385,4.831
			c2.248,1.344,5.149,2.014,8.707,2.014c3.086,0,6.072-0.738,8.959-2.215c2.885-1.476,5.099-3.488,6.643-6.039L315.656,39.076z
			 M311.025,20.656c0-2.08-0.42-4.026-1.258-5.839c-0.84-1.812-1.98-3.405-3.422-4.781c-1.444-1.375-3.156-2.466-5.135-3.271
			c-1.979-0.805-4.076-1.208-6.291-1.208c-3.289,0-6.023,0.672-8.203,2.014c-2.182,1.343-3.91,2.886-5.184,4.63
			c-1.276,1.746-2.182,3.44-2.719,5.084c-0.537,1.645-0.805,2.768-0.805,3.372H311.025z"/>
	</g>
</g>
<rect x="0.529" y="64.774" width="69.861" height="5.854"/>
</svg>
